<svg xmlns="http://www.w3.org/2000/svg" width="24" height="24" viewBox="0 0 24 24">
	<path d="M1,1h22V23H1V1z M0,24h24V0H0V24z M15.7,8.6c0-0.1,0-0.1,0.1-0.1h1.6c0.1,0,0.1,0,0.1,0.1v8.1c0,0.1,0,0.1-0.1,0.1h-1.5
	c-0.1,0-0.1,0-0.1-0.1L15.7,8.6L15.7,8.6L15.7,8.6z M15.6,6.2c0-0.7,0.5-1,1-1c0.6,0,1,0.4,1,1c0,0.7-0.4,1-1,1
	C16,7.3,15.6,6.9,15.6,6.2z M11.1,11.9c-0.3-1.1-0.9-3.6-1.2-4.8h0c-0.2,1.2-0.7,3.2-1.2,4.8H11.1L11.1,11.9z M8.3,13.6l-0.8,3.1
	c0,0.1,0,0.1-0.1,0.1H5.9c-0.1,0-0.1,0-0.1-0.2L8.7,6.4c0-0.2,0.1-0.3,0.1-0.9c0-0.1,0-0.1,0.1-0.1h2.1c0.1,0,0.1,0,0.1,0.1
	l3.2,11.1c0,0.1,0,0.1-0.1,0.1h-1.7c-0.1,0-0.1,0-0.1-0.1l-0.8-3.1H8.3L8.3,13.6z"/>
</svg>
