<svg xmlns="http://www.w3.org/2000/svg" width="24" height="24" viewBox="0 0 24 24">
	<path d="M9.7,10.8c0.2-0.1,0.4-0.4,0.4-0.8c0-0.4-0.2-0.7-0.5-0.8C9.3,9.1,8.9,9.1,8.5,9.1H6.8v2h1.9C9.1,11,9.5,11,9.7,10.8z"/>
	<path d="M9.7,12.7c-0.2-0.1-0.5-0.1-0.9-0.2H6.8v2.4h1.9c0.4,0,0.7-0.1,0.9-0.2c0.4-0.2,0.6-0.6,0.6-1.1
		C10.2,13.2,10,12.9,9.7,12.7z"/>
	<path d="M16,11c-0.4,0-0.8,0.1-1,0.4c-0.2,0.2-0.4,0.6-0.4,1h2.9c0-0.4-0.2-0.8-0.4-1C16.8,11.1,16.4,11,16,11z"/>
	<path d="M19,3H5C3.9,3,3,3.9,3,5v14c0,1.1,0.9,2,2,2h14c1.1,0,2-0.9,2-2V5C21,3.9,20.1,3,19,3z M14.2,7.9h3.6v0.9h-3.6V7.9z
		 M11.7,15.2c-0.2,0.3-0.4,0.5-0.6,0.7c-0.3,0.2-0.6,0.4-1,0.4c-0.4,0.1-0.8,0.1-1.3,0.1H4.7v-9h4.4c1.1,0,1.9,0.3,2.3,1
		c0.3,0.4,0.4,0.8,0.4,1.4c0,0.6-0.1,1-0.4,1.3c-0.2,0.2-0.4,0.4-0.7,0.5c0.5,0.2,0.8,0.4,1,0.8c0.2,0.4,0.3,0.8,0.3,1.3
		C12.1,14.3,12,14.8,11.7,15.2z M15.2,14.8c0.3,0.2,0.6,0.2,0.9,0.2c0.4,0,0.7-0.1,0.9-0.3c0.1-0.1,0.3-0.3,0.4-0.4h1.7
		c0,0.4-0.3,0.8-0.6,1.2c-0.6,0.6-1.4,0.9-2.4,0.9c-0.9,0-1.6-0.3-2.3-0.8c-0.6-0.5-1-1.4-1-2.6c0-1.1,0.3-2,0.9-2.6
		c0.6-0.6,1.4-0.9,2.3-0.9c0.6,0,1.1,0.1,1.5,0.3s0.8,0.5,1.1,1c0.3,0.4,0.4,0.8,0.5,1.3c0.1,0.3,0.1,0.7,0.1,1.3h-4.7
		C14.6,14.1,14.8,14.6,15.2,14.8z"/>
</svg>
