<svg xmlns="http://www.w3.org/2000/svg" width="24" height="24" viewBox="0 0 24 24">
	<path d="M22,14c-0.1-0.5-0.1-1-0.2-1.5c-0.2-0.5-0.3-1-0.5-1.4c-0.2-0.3-0.3-0.6-0.5-0.9c-0.4-0.5-0.7-0.9-1.1-1.3
		c-1.8-1.7-3.5-3.5-5.3-5.3c-0.4-0.4-0.8-0.8-1.2-1.2c-0.6-0.5-1.6-0.2-1.9,0.5c-0.2,0.5,0,0.9,0.3,1.3c0.9,0.9,1.7,1.7,2.6,2.6
		c0,0,0.1,0.1,0.1,0.1c-0.1,0-0.1,0-0.2,0c-2.8,0-5.7,0-8.5,0c-0.2,0-0.3,0-0.5,0C4.2,7,3.6,7.9,4,8.7C4.2,9,4.5,9.2,4.9,9.3
		c0.1,0,0.1,0,0.2,0c1.2,0,2.4,0,3.6,0c0.1,0,0.1,0,0.2,0C8.9,9.4,8.9,9.5,8.8,9.5c-2.1,2.1-4.2,4.2-6.4,6.4c0,0-0.1,0.1-0.1,0.1
		c0,0-0.1,0.1-0.1,0.1C1.7,16.7,2,17.7,2.8,18c0.5,0.2,0.9,0,1.3-0.3c1-1,1.9-1.9,2.9-2.9c0,0,0.1-0.1,0.1-0.1c0,0.1,0,0.2,0,0.3
		c0,0.3,0,0.6,0.1,0.9C7.4,16.6,7.6,17.3,8,18c0.2,0.3,0.3,0.5,0.5,0.8c0.3,0.4,0.6,0.9,1.1,1.2c0.4,0.3,0.7,0.6,1.1,0.9
		c0.5,0.2,0.9,0.5,1.4,0.7c0.4,0.1,0.9,0.3,1.3,0.3c0.5,0,1.1,0.1,1.6,0.1c0.5-0.1,0.9-0.1,1.4-0.2c0.5-0.2,1-0.3,1.4-0.5
		c0.4-0.2,0.8-0.4,1.2-0.7c0.4-0.3,0.8-0.6,1.1-1c0.3-0.4,0.6-0.7,0.8-1.1c0.2-0.4,0.5-0.8,0.6-1.3c0.1-0.5,0.3-1,0.4-1.5
		C21.9,14.9,22,14.5,22,14z M14.5,19.5c-2.8-0.1-5.1-2.2-5.1-5.1s2.2-5.1,5.1-5.1s5.1,2.2,5.1,5.1S17.4,19.4,14.5,19.5z"/>
	<path d="M14.5,11.4c-1.7,0-3,1.3-3,3c0,1.7,1.3,3,3,3c1.7,0,3-1.3,3-3S16.2,11.3,14.5,11.4z"/>
</g>
</svg>
