<svg xmlns="http://www.w3.org/2000/svg" width="24" height="24" viewBox="0 0 24 24">
	<path d="M149.8,90.3c-0.5-3.7-0.4-7.5-1.7-11.2c-1.3-3.6-2-7.5-4-10.8c-1.3-2.2-2.2-4.7-3.8-6.7
		c-2.7-3.4-5.4-6.8-8.5-9.9c-13.3-13.1-26.4-26.4-39.6-39.5c-3.1-3.1-6-6.2-9.3-9.1c-4.6-4.1-12.1-1.8-14,4
		c-1.2,3.7-0.2,6.9,2.5,9.7C78,23.2,84.3,29.6,90.7,36c0.2,0.2,0.4,0.5,0.8,0.9c-0.7,0-1.1,0.1-1.6,0.1c-21.3,0-42.7,0-64,0
		c-1.2,0-2.3,0-3.5,0.1c-6.1,0.4-10.1,7.4-7.2,12.8c1.4,2.7,3.7,4.3,6.7,4.9c0.5,0.1,1.1,0.2,1.6,0.2c9.1,0,18.1,0,27.2,0
		c0.4,0,0.8,0,1.4,0.1c-0.4,0.5-0.7,0.8-1,1.1C35.2,72.1,19.3,88,3.3,104c-0.3,0.3-0.5,0.7-0.8,1c-0.2,0.3-0.4,0.5-0.6,0.8
		c-3.9,4.7-1.7,12.2,4.1,14c3.7,1.2,6.9,0.2,9.6-2.5c7.2-7.2,14.4-14.4,21.6-21.6c0.2-0.2,0.5-0.4,0.9-0.8c0.1,1,0.2,1.8,0.3,2.5
		c0.2,2.2,0.2,4.6,0.8,6.7c1.5,5.4,2.8,10.8,5.9,15.6c1.2,1.9,2.2,4,3.6,5.8c2.5,3.1,4.7,6.5,8,9c2.8,2.1,5.3,4.8,8.5,6.4
		c3.5,1.7,6.8,4,10.6,4.9c3.3,0.8,6.5,2.3,10,2.5c4,0.2,8,1.1,12,0.4c3.4-0.5,7-0.5,10.3-1.7c3.5-1.3,7.3-2,10.6-3.9
		c3-1.8,6.3-3.1,9-5.5c2.7-2.5,5.8-4.4,8-7.4c2.1-2.9,4.8-5.3,6.3-8.6c1.5-3.3,3.7-6.2,4.6-9.8c1-3.8,2.6-7.5,2.8-11.6
		C149.5,96.9,150.3,93.6,149.8,90.3z M94,131c-21.2-0.4-37.9-16.7-37.9-38c0-21.3,16.6-37.9,37.9-37.9c21.3,0,37.9,16.6,37.9,37.9
		C131.9,114.3,115.3,130.5,94,131z"/>
	<path class="st0" d="M93.9,70.2C81,70.2,71.2,80.3,71.2,93c0,12.9,10.1,22.6,22.8,22.8c12.7-0.2,22.8-10,22.8-22.8
		C116.8,80.2,106.8,70.1,93.9,70.2z"/>
</svg>
