<svg xmlns="http://www.w3.org/2000/svg" width="24" height="24" viewBox="0 0 24 24">
	<path d="M1,1h22V23H1V1z M0,24h24V0H0V24z M15.2,10c-0.1-0.1-0.4-0.1-0.6-0.1c-1.3,0-2.2,1-2.2,2.7c0,1.9,0.9,2.7,2.1,2.7
	c0.2,0,0.5,0,0.7-0.1V10L15.2,10z M14.7,8.3c0.2,0,0.3,0,0.5,0V5.6c0-0.1,0-0.1,0.1-0.1h1.6c0.1,0,0.1,0,0.1,0.1v9.6
	c0,0.3,0,0.6,0,1c0,0.1,0,0.1-0.1,0.1c-0.9,0.4-1.8,0.6-2.6,0.6c-2.2,0-3.8-1.4-3.8-4.3C10.5,10.2,12.1,8.3,14.7,8.3z M8.8,16.6
	c0,0.1,0,0.1-0.1,0.1H7.1c-0.1,0-0.1,0-0.1-0.1v-11c0-0.1,0-0.1,0.1-0.1h1.5c0.1,0,0.1,0,0.1,0.1L8.8,16.6L8.8,16.6z"/>
</svg>
