<svg xmlns="http://www.w3.org/2000/svg" width="24" height="24" viewBox="0 0 24 24">
	<path d="M1,1h22V23H1V1z M0,24h24V0H0V24z M16.2,9.8c-0.8,0-1.1,0.4-1.1,0.7c0,0.4,0.2,0.6,1.2,1.2c1.6,0.8,2.1,1.5,2.1,2.6
	c0,1.6-1.2,2.5-2.9,2.5c-0.9,0-1.6-0.2-2-0.4c-0.1,0-0.1-0.1-0.1-0.2v-1.5c0-0.1,0-0.1,0.1-0.1c0.6,0.4,1.4,0.6,2,0.6
	c0.8,0,1.1-0.3,1.1-0.8c0-0.4-0.2-0.7-1.2-1.2c-1.4-0.7-2-1.4-2-2.6c0-1.3,1-2.4,2.8-2.4c0.9,0,1.5,0.1,1.8,0.3
	c0.1,0,0.1,0.1,0.1,0.2v1.4c0,0.1,0,0.1-0.1,0.1C17.5,10,16.8,9.8,16.2,9.8L16.2,9.8z M7.6,11.1c0.2,0,0.4,0,0.8,0
	c1.2,0,2.3-0.4,2.3-2.1c0-1.3-0.8-2-2.1-2c-0.4,0-0.8,0-1,0L7.6,11.1L7.6,11.1z M5.8,5.6c0-0.1,0.1-0.1,0.2-0.1c0.6,0,1.6,0,2.6,0
	c2.8,0,3.9,1.6,3.9,3.5c0,2.6-1.8,3.7-4.1,3.7c-0.4,0-0.5,0-0.8,0v3.9c0,0.1,0,0.1-0.1,0.1H5.9c-0.1,0-0.1,0-0.1-0.1L5.8,5.6
	L5.8,5.6z"/>
</svg>
