<?xml version="1.0" encoding="utf-8"?>
<!-- Generator: Adobe Illustrator 23.0.1, SVG Export Plug-In . SVG Version: 6.00 Build 0)  -->
<svg version="1.1" id="Layer_1" xmlns="http://www.w3.org/2000/svg" xmlns:xlink="http://www.w3.org/1999/xlink" x="0px" y="0px"
	 viewBox="0 0 24 24" style="enable-background:new 0 0 24 24;" xml:space="preserve">
<g>
	<path d="M8.7,11.2c-0.5,0.5-0.7,1.1-0.9,1.6c0,0.3,0.1,0.6,0.1,0.8l1.1,0.1C8.8,12.6,8.7,11.2,8.7,11.2z"/>
	<path d="M8.7,10c0-0.2,0-0.6,0-0.6c-0.2,0.3-0.4,0.6-0.5,1C8.4,10.2,8.6,10,8.7,10z"/>
	<path d="M9.3,14.3C9,14.3,8.5,14.1,8,14c0.6,1.9,2.2,3.4,4.2,3.8C12,17.7,10,16.4,9.3,14.3z"/>
	<path d="M19,3H5C3.9,3,3,3.9,3,5v14c0,1.1,0.9,2,2,2h14c1.1,0,2-0.9,2-2V5C21,3.9,20.1,3,19,3z M19.2,12.1c-0.1,0.4-0.1,1-0.3,1.4
		c-0.6,1.9-1.5,3.1-3.4,4.2c-0.2,0.1-0.4,0.2-0.6,0.3c-0.4,0.1-0.8,0.2-1.1,0.1c-0.1,0-0.4,0-0.5,0c-2.7,0-4.9-1.8-5.5-4.2H7.6
		c-0.1,1.3,0.8,2.9,0.8,2.9s0.1,0.1,0.4,0.6C7,16.5,7,13.8,7,13.8c-0.4-0.1-1.9-0.6-2.2-1.1c0,0,1.1,0.6,2.2,0.8v-0.2
		c0.1-0.9,0.4-1.5,0.6-2c0.2-0.9,0.6-1.8,1.2-2.5c0.1-0.4,0.3-1,0.6-1.5C9.5,7,9.6,6.9,9.9,6.7c2.2-1,4.2-1.3,6.3-0.1
		C18.3,7.7,19.4,9.9,19.2,12.1z"/>
	<path d="M13.3,6.9c-1.4,0-2.7,0.5-3.6,1.4C9.5,8.6,9.5,8.9,9.4,9.4c1.4-1.2,4.1-0.9,4.1-0.9c0.6,0,0.6,0.6,0.6,0.8
		c-2.4-0.2-3.6,0.4-4.7,1.4c0,0,0.2,2.2,0.7,3.1c3,0.1,5.3-1.5,5.3-1.5c0.3-0.2,0.5-0.2,0.6,0.1c0,0.3,0.1,0.7-0.3,0.9
		c-1,0.5-2.2,0.8-3.2,0.9c-0.7,0.1-1.1,0.1-2.2,0.1c1,2.4,3.6,3,3.6,3c0.8,0.1,1.4,0.1,1.8-0.1c1.7-0.9,2.9-2.7,3-4.9
		C18.7,9.4,16.3,6.9,13.3,6.9z"/>
</g>
</svg>
