<?xml version="1.0" encoding="utf-8"?>
<!-- Generator: Adobe Illustrator 23.0.1, SVG Export Plug-In . SVG Version: 6.00 Build 0)  -->
<svg version="1.1" id="Layer_1" xmlns="http://www.w3.org/2000/svg" xmlns:xlink="http://www.w3.org/1999/xlink" x="0px" y="0px"
	 viewBox="0 0 24 24" style="enable-background:new 0 0 24 24;" xml:space="preserve">
<path d="M17.9,4.2C15,2.6,12.1,3,9.1,4.4C8.7,4.6,8.5,4.8,8.4,5.1C8,5.8,7.7,6.6,7.6,7.2c-0.8,1-1.4,2.2-1.7,3.5
	c-0.4,0.7-0.8,1.6-0.9,2.8c0,0,0,0.3,0,0.3c-1.4-0.2-3-1.1-3-1.1c0.4,0.6,2.4,1.3,3,1.5c0,0,0.1,3.8,2.5,5.1C7.1,18.6,7,18.5,7,18.5
	s-1.3-2.3-1.1-4.1c0,0,0.1,0,0.1,0c0.9,3.4,4,5.9,7.7,5.9c0.2,0,0.5,0,0.7,0c0.5,0.1,1.1,0,1.6-0.2c0.3-0.1,0.5-0.3,0.8-0.4
	c2.7-1.5,3.9-3.2,4.8-5.8c0.2-0.6,0.3-1.4,0.4-2C22.3,8.8,20.8,5.7,17.9,4.2L17.9,4.2z M7.4,8.2c0,0,0,0.5,0,0.8
	C7.3,9,7,9.2,6.7,9.6C6.9,9.1,7.1,8.6,7.4,8.2L7.4,8.2z M6.2,12.9c0.2-0.7,0.5-1.5,1.2-2.2c0,0,0.1,1.9,0.6,3.5L6.4,14
	C6.3,13.7,6.2,13.3,6.2,12.9z M6.5,14.6c0.6,0.1,1.3,0.3,1.7,0.4c1.1,3,4.2,4.9,4.2,4.9c0,0,0.1,0,0.1,0C9.7,19.4,7.3,17.3,6.5,14.6
	L6.5,14.6z M17.1,19.1c-0.6,0.2-1.4,0.3-2.5,0.1c0,0-3.6-0.9-5-4.2c1.5,0,2,0,3-0.2c1.5-0.2,3.1-0.6,4.5-1.3
	c0.5-0.2,0.4-0.8,0.4-1.2c-0.1-0.5-0.4-0.5-0.8-0.2c0,0-3.2,2.3-7.4,2.1c-0.7-1.3-1-4.3-1-4.3c1.6-1.4,3.3-2.3,6.6-2
	c0-0.3,0.1-1.1-0.8-1.1c0,0-3.7-0.4-5.7,1.3c0.1-0.6,0.2-1.1,0.4-1.5c1.3-1.2,3.1-1.9,5-1.9c4.2,0,7.5,3.4,7.5,7.6
	C21.2,15.3,19.5,17.9,17.1,19.1z"/>
</svg>
