<svg xmlns="http://www.w3.org/2000/svg" width="24" height="24" viewBox="0 0 24 24">
	<path d="M19,3H5C3.9,3,3,3.9,3,5v14c0,1.1,0.9,2,2,2h14c1.1,0,2-0.9,2-2V5C21,3.9,20.1,3,19,3z M19,13.5c0.1,0.9-0.3,1.4-1.1,1.3
	c-0.1,0.3-0.4,0.5-0.7,0.6c-0.3,0.1-0.6,0-0.9-0.3c0,0.1-0.1,0.1-0.1,0.2c-0.4,0.4-0.9,0.4-1.3,0c-0.1-0.1-0.2-0.2-0.3-0.3
	c-0.1-0.2-0.1-0.4,0-0.5c0.1-0.1,0.3-0.1,0.5,0c0.1,0.1,0.3,0.2,0.4,0.4c0.3-0.1,0.4-0.2,0.2-0.4c-0.4-0.5-0.9-0.9-1.3-1.3
	c-0.1-0.1-0.1-0.1-0.2-0.2c-0.1-0.2-0.1-0.3,0-0.5c0.1-0.1,0.3-0.1,0.5,0c0.1,0,0.1,0.1,0.2,0.2c0.6,0.6,1.3,1.3,1.9,1.9
	c0.1,0.1,0.2,0.2,0.2,0.2c0.2,0,0.3-0.1,0.3-0.3c-0.1-0.1-0.2-0.2-0.2-0.3c-0.6-0.6-1.3-1.3-1.9-1.9c-0.1-0.1-0.1-0.1-0.2-0.2
	c-0.1-0.1-0.1-0.3,0.1-0.5c0.1-0.1,0.3-0.1,0.4,0c0.1,0.1,0.1,0.1,0.2,0.2c0.8,0.8,1.5,1.5,2.3,2.3c0.2,0.2,0.3,0.2,0.5-0.1
	c-0.1-0.1-0.1-0.2-0.2-0.3c-0.7-0.7-1.5-1.5-2.2-2.2c-0.1-0.1-0.1-0.1-0.2-0.2c-0.1-0.1-0.1-0.3,0-0.5c0.1-0.1,0.3-0.1,0.5,0
	c0.1,0,0.1,0.1,0.2,0.2c0.6,0.6,1.2,1.2,1.7,1.7c0.1,0.1,0.1,0.1,0.2,0.2c0.2,0.2,0.3,0.1,0.4-0.2c-0.1-0.1-0.1-0.2-0.2-0.3
	c-1-1-1.9-1.9-2.9-2.9c-0.1-0.1-0.1-0.1-0.2-0.2c-0.1-0.2-0.1-0.4,0-0.5c0.1-0.1,0.3-0.1,0.5,0c0.1,0.1,0.2,0.2,0.3,0.3
	c0.3,0.3,0.5,0.5,0.8,0.8c0.2,0.2,0.5,0.4,0.9,0.2c0,0,0.1,0,0.1-0.1l-0.1-0.1c-0.8-0.8-1.6-1.7-2.5-2.5c-1.6-1.4-4-0.8-4.5,1.1
	c-0.3,0.9-0.1,1.8,0.6,2.6c0.4,0.4,0.8,0.8,1.1,1.2c0.7,0.7,1.1,1.6,1,2.6c-0.1,1.8-1.5,3.2-3.3,3.2c-1,0-1.8-0.3-2.5-1
	c-0.9-0.9-1.8-1.8-2.7-2.7c-0.2-0.2-0.2-0.4-0.1-0.6c0.1-0.2,0.3-0.4,0.5-0.5c0.1,0,0.2-0.1,0.3-0.1c-0.1-0.1-0.2-0.2-0.3-0.3
	c-0.2-0.2-0.5-0.5-0.7-0.7c-0.6-0.5-0.7-1.2,0-1.7c-0.1-0.3-0.1-0.7,0.2-1s0.6-0.4,0.9-0.3c0.4-0.6,1-0.8,1.6-0.3c0,0,0,0,0.1,0
	C8.3,8.2,9,8.4,9.5,9c0.1,0.1,0.1,0.3-0.1,0.4c0,0.2-0.2,0.2-0.4,0.1c-0.1,0-0.2-0.2-0.3-0.2C8.5,9.1,8.4,9.1,8.3,9.4
	c0.1,0.1,0.2,0.2,0.2,0.3c0.4,0.4,0.8,0.8,1.2,1.2L9.8,11c0.2,0.2,0.2,0.4,0,0.5c-0.1,0.2-0.4,0.2-0.5,0c-0.2-0.2-0.4-0.4-0.6-0.6
	c-0.5-0.5-1-1-1.4-1.4C7.1,9.3,7,9.3,6.9,9.4C6.7,9.5,6.8,9.6,7,9.8c0.7,0.7,1.3,1.3,2,2c0,0.1,0.1,0.1,0.1,0.2
	c0.1,0.1,0.1,0.3-0.1,0.4c-0.1,0.1-0.3,0.1-0.4,0.1c-0.1,0-0.1-0.1-0.2-0.2c-0.8-0.8-1.5-1.5-2.3-2.3L6,9.9c-0.1,0-0.2,0-0.3,0
	c-0.1,0.1-0.1,0.2,0,0.3c0,0.1,0.1,0.1,0.2,0.2c0.7,0.7,1.5,1.5,2.2,2.2c0.1,0.1,0.1,0.1,0.1,0.2c0.1,0.2,0.1,0.4,0,0.5
	c-0.1,0.1-0.3,0.1-0.5,0c-0.1,0-0.1-0.1-0.2-0.2c-0.6-0.6-1.2-1.2-1.8-1.8c0,0-0.1-0.1-0.2-0.2c-0.3,0.1-0.3,0.3-0.2,0.4l0.1,0.1
	c0.9,0.9,1.9,1.9,2.8,2.8l0.1,0.1c0.2,0.2,0.2,0.4,0.1,0.6c-0.1,0.2-0.4,0.1-0.6,0c-0.2-0.2-0.4-0.4-0.6-0.6
	c-0.1-0.1-0.3-0.3-0.4-0.4c-0.1-0.1-0.3-0.2-0.5-0.3c-0.2-0.1-0.4-0.1-0.5,0.1C5.9,14,6,14.1,6,14.1c0.8,0.8,1.6,1.7,2.5,2.5
	c1.5,1.5,4,0.8,4.5-1.3c0.2-0.9,0-1.7-0.6-2.4c-0.4-0.4-0.8-0.8-1.1-1.2c-0.6-0.6-0.9-1.3-1-2.2C10.1,8,11.2,6.4,12.8,6
	C14,5.7,15.1,6,16,6.9c0.9,0.9,1.8,1.8,2.7,2.7c0.2,0.2,0.2,0.4,0.1,0.7c-0.1,0.3-0.4,0.4-0.7,0.5c0.1,0.1,0.2,0.2,0.3,0.3
	c0.2,0.2,0.5,0.5,0.7,0.7C19.6,12.2,19.7,12.9,19,13.5z"/>
</svg>
