<svg xmlns="http://www.w3.org/2000/svg" width="100" height="100" viewBox="0 0 100 100" class="logo">
	<path class="st0" d="M73.8,66.7c0,1.4,0,3.8,1.8,3.8c1.5,0,5.3-2.5,5.6-11.5H82c0,2.1-0.7,10.2-5.7,12.2c-2.5,1.1-5.8,1.6-8.9,1.6
		c-2.2,0-4.2-0.3-5.8-0.8c-6.2-1.9-8-3.8-9.8-8.9c-2.3,5.6-5.6,8-8.7,8.9c-1.7,0.5-3.6,0.6-6.1,0.6c-9.4,0-18.9-2.1-18.9-11.4
		c0-1.4,0.3-2.7,0.8-3.9c2.4-6.1,7.4-6.7,15-7.7l2.6-0.3c14.6-1.9,15.3-7.8,15.3-12.8c0-8.3-3.7-9-7.9-9c-2.3,0-9.1,0.3-11.3,4.4
		c0.7-0.3,1.5-0.3,2.4-0.3c4,0,9.3,2.3,9.3,7.1c0,5.1-5.7,8.4-11.1,8.4c-5.4,0-10.7-3.3-10.7-8.6c0-7.1,11.5-11.8,25.2-11.8
		c6.7,0,13.9,1.1,18.7,3.8c7.3,3.9,7.6,9.1,7.6,13.9V66.7z M39.8,55.5c-0.3,1.7-0.4,3.2-0.4,4.5c0,2,0.2,3.8,0.4,5.8
		c0.1,1.7,0.3,5,3.1,5c0.8,0,1.7-0.2,2.2-0.6c6.3-3.2,6.5-10.8,6.5-17.3v-11c-0.4,2.1-2.2,3.5-3.3,4.1
		C41.1,50.1,40.6,50.7,39.8,55.5z"/>
	<path class="st0" d="M100,100H0V0h100V100z M1.9,97.8h96.2V2.2H1.9V97.8z"/>
</svg>
