<?xml version="1.0" encoding="utf-8"?>
<!-- Generator: Adobe Illustrator 23.0.1, SVG Export Plug-In . SVG Version: 6.00 Build 0)  -->
<svg version="1.1" id="Layer_1" xmlns="http://www.w3.org/2000/svg" xmlns:xlink="http://www.w3.org/1999/xlink" x="0px" y="0px"
	 viewBox="0 0 157.17 178.53" style="enable-background:new 0 0 157.17 178.53;" xml:space="preserve">
<g>
	<path d="M29.89,130.6h-3.06l1.86-5.31h6.51l1.77,5.31h-3.09v0.75h9.48v-0.75h-2.37l-6.84-19.74H33.1l-7.17,19.74h-2.4v0.75h6.36
		V130.6z M32.05,116.17l2.79,8.37h-5.82L32.05,116.17z"/>
	<polygon points="57.24,112.63 69.96,131.74 70.86,131.74 70.86,112.06 73.83,112.06 73.83,111.31 67.02,111.31 67.02,112.06 
		69.9,112.06 69.9,124.42 61.02,111.31 53.33,111.31 53.33,112.06 56.28,112.06 56.28,130.6 53.33,130.6 53.33,131.35 60.18,131.35 
		60.18,130.6 57.24,130.6 	"/>
	<polygon points="85.47,130.6 85.47,131.35 92.31,131.35 92.31,130.6 89.37,130.6 89.37,112.63 102.09,131.74 102.99,131.74 
		102.99,112.06 105.96,112.06 105.96,111.31 99.15,111.31 99.15,112.06 102.03,112.06 102.03,124.42 93.15,111.31 85.47,111.31 
		85.47,112.06 88.41,112.06 88.41,130.6 	"/>
	<path d="M124.55,110.86h-1.05l-7.17,19.74h-2.4v0.75h6.36v-0.75h-3.06l1.86-5.31h6.51l1.77,5.31h-3.09v0.75h9.48v-0.75h-2.37
		L124.55,110.86z M119.42,124.54l3.03-8.37l2.79,8.37H119.42z"/>
	<path d="M32.88,154.29c-0.76,0.56-1.56,0.84-2.41,0.84c-1.26,0-2.2-0.43-2.82-1.29c-0.62-0.85-0.92-2.09-0.92-3.72v-3.91
		c0-1.59,0.3-2.83,0.9-3.72c0.57-0.86,1.48-1.29,2.71-1.29c0.84,0,1.66,0.27,2.45,0.8c0.79,0.52,1.33,1.53,1.63,3.03h0.62v-4.15
		h-0.49l-0.84,0.9c-0.36-0.3-0.82-0.57-1.4-0.8c-0.54-0.22-1.18-0.32-1.89-0.32c-1.88,0-3.5,0.75-4.86,2.24
		c-1.33,1.49-2,3.27-2,5.33c0,1.99,0.67,3.73,2.02,5.2c1.33,1.49,2.88,2.24,4.64,2.24c0.67,0,1.33-0.1,1.98-0.3
		c0.6-0.19,1.16-0.49,1.68-0.9l0.88,1.01h0.47v-4.39h-0.62C34.21,152.67,33.63,153.73,32.88,154.29z"/>
	<path d="M48,140.66c-1.78,0-3.34,0.75-4.69,2.26c-1.33,1.49-2,3.24-2,5.25c0,2.02,0.67,3.78,2.02,5.27
		c1.33,1.49,2.89,2.24,4.67,2.24c1.76,0,3.32-0.75,4.69-2.26c1.35-1.48,2.02-3.23,2.02-5.25s-0.67-3.78-2.02-5.27
		C51.32,141.41,49.76,140.66,48,140.66z M51.55,150.72c0,1.43-0.29,2.53-0.88,3.29c-0.57,0.75-1.46,1.12-2.67,1.12
		c-1.2,0-2.09-0.37-2.67-1.12c-0.57-0.75-0.86-1.84-0.86-3.29v-5.12c0-1.45,0.29-2.54,0.86-3.29c0.57-0.75,1.46-1.12,2.67-1.12
		c1.19,0,2.08,0.37,2.69,1.12c0.57,0.77,0.86,1.87,0.86,3.29V150.72z"/>
	<path d="M68.23,140.66c-1.78,0-3.34,0.75-4.69,2.26c-1.33,1.49-2,3.24-2,5.25c0,2.02,0.67,3.78,2.02,5.27
		c1.33,1.49,2.89,2.24,4.67,2.24c1.76,0,3.32-0.75,4.69-2.26c1.35-1.48,2.02-3.23,2.02-5.25s-0.67-3.78-2.02-5.27
		C71.55,141.41,69.99,140.66,68.23,140.66z M71.78,150.72c0,1.43-0.29,2.53-0.88,3.29c-0.57,0.75-1.46,1.12-2.67,1.12
		c-1.2,0-2.09-0.37-2.67-1.12c-0.57-0.75-0.86-1.84-0.86-3.29v-5.12c0-1.45,0.29-2.54,0.86-3.29c0.57-0.75,1.46-1.12,2.67-1.12
		c1.19,0,2.08,0.37,2.69,1.12c0.57,0.77,0.86,1.87,0.86,3.29V150.72z"/>
	<polygon points="89.75,141.52 91.82,141.52 91.82,150.38 85.45,140.98 79.95,140.98 79.95,141.52 82.05,141.52 82.05,154.81 
		79.95,154.81 79.95,155.35 84.85,155.35 84.85,154.81 82.74,154.81 82.74,141.93 91.86,155.63 92.5,155.63 92.5,141.52 
		94.63,141.52 94.63,140.98 89.75,140.98 	"/>
	<path d="M111.94,153.8c-0.54,0.67-1.51,1.01-2.9,1.01h-2.88v-6.58h0.58c1.09,0,1.81,0.29,2.17,0.86c0.34,0.56,0.52,1.22,0.52,1.98
		h0.6v-6h-0.6c0,0.7-0.18,1.32-0.54,1.85c-0.34,0.52-1.06,0.77-2.15,0.77h-0.58v-6.17h2.47c1.19,0,2.09,0.22,2.69,0.65
		c0.6,0.42,1.06,1.31,1.38,2.69h0.6l-0.15-3.87H101.3v0.54h2.13v13.29h-2.13v0.54h12.21l0.19-4.62h-0.62
		C112.86,152.1,112.48,153.12,111.94,153.8z"/>
	<polygon points="129.12,141.52 131.35,141.52 127.89,147.69 124.24,141.52 126.43,141.52 126.43,140.98 119.44,140.98 
		119.44,141.52 121.01,141.52 125.53,148.83 125.53,154.81 123.25,154.81 123.25,155.35 130.64,155.35 130.64,154.81 128.26,154.81 
		128.26,148.36 132,141.52 133.76,141.52 133.76,140.98 129.12,140.98 	"/>
	<path d="M56.16,102.15c4.17,0,7.59-0.15,10.44-1.03c5.31-1.62,11-5.6,14.99-15.33c3.04,8.69,6.26,12.08,16.89,15.33
		c2.85,0.88,6.26,1.33,10.06,1.33c5.31,0,11-0.88,15.37-2.8c8.73-3.54,9.87-17.54,9.87-21.07h-1.33
		c-0.57,15.62-7.02,19.89-9.68,19.89c-3.04,0-3.04-4.13-3.04-6.48V53.53c0-8.4-0.57-17.24-13.09-24.02
		c-8.35-4.57-20.68-6.48-32.25-6.48c-23.72,0-43.45,8.1-43.45,20.34c0,8.99,9.11,14.74,18.4,14.74c9.3,0,19.16-5.6,19.16-14.44
		c0-8.25-9.11-12.23-15.94-12.23c-1.52,0-3.04,0.15-4.17,0.59c3.79-7.22,15.56-7.66,19.54-7.66c7.21,0,13.66,1.18,13.66,15.47
		c0,8.69-1.14,18.86-26.37,22.1l-4.55,0.59c-13.09,1.77-21.63,2.8-25.8,13.26c-0.76,2.06-1.33,4.42-1.33,6.78
		C23.53,98.62,40.04,102.15,56.16,102.15z M61.1,72.68c1.33-8.25,2.28-9.28,14.61-16.36c1.9-1.03,4.93-3.54,5.69-7.07v19.01
		c0,11.2-0.38,24.31-11.19,29.77c-0.95,0.74-2.47,1.03-3.79,1.03c-4.74,0-5.12-5.6-5.31-8.55c-0.38-3.54-0.76-6.63-0.76-10.02
		C60.34,78.14,60.53,75.63,61.1,72.68z"/>
	<path d="M0,0v178.53h157.17V0H0z M154.17,175.53H3V3h151.17V175.53z"/>
</g>
</svg>
